<svg width="220" height="54" viewBox="0 0 220 54" fill="none" xmlns="http://www.w3.org/2000/svg">
<path d="M4.63438 31C3.84504 31 3.45038 30.6053 3.45038 29.816V10.84C3.45038 10.0507 3.84504 9.656 4.63438 9.656C5.41304 9.656 5.80238 10.0507 5.80238 10.84V28.648H14.9544C15.7437 28.648 16.1384 29.0373 16.1384 29.816C16.1384 30.6053 15.7437 31 14.9544 31H4.63438ZM27.1734 31C24.7734 31 23.0027 30.4347 21.8614 29.304C20.7307 28.1627 20.1654 26.392 20.1654 23.992V10.84C20.1654 10.456 20.2667 10.1627 20.4694 9.96C20.672 9.75733 20.9654 9.656 21.3494 9.656C21.7334 9.656 22.0214 9.75733 22.2134 9.96C22.416 10.1627 22.5174 10.456 22.5174 10.84V23.992C22.5174 25.1653 22.6614 26.0933 22.9494 26.776C23.2374 27.448 23.7174 27.928 24.3894 28.216C25.072 28.504 26 28.648 27.1734 28.648H31.0134C32.176 28.648 33.0934 28.504 33.7654 28.216C34.448 27.928 34.9334 27.448 35.2214 26.776C35.5094 26.0933 35.6534 25.1653 35.6534 23.992V10.84C35.6534 10.456 35.7547 10.1627 35.9574 9.96C36.16 9.75733 36.4534 9.656 36.8374 9.656C37.2214 9.656 37.5094 9.75733 37.7014 9.96C37.904 10.1627 38.0054 10.456 38.0054 10.84V23.992C38.0054 26.392 37.44 28.1627 36.3094 29.304C35.1787 30.4347 33.4134 31 31.0134 31H27.1734ZM45.4469 31C44.6575 31 44.2629 30.6053 44.2629 29.816V10.84C44.2629 10.0507 44.6575 9.656 45.4469 9.656C45.9695 9.656 46.4015 9.912 46.7429 10.424L54.4389 22.056L53.9269 22.136L61.6549 10.424C61.9749 9.912 62.4495 9.656 63.0789 9.656C63.7295 9.656 64.0549 10.0507 64.0549 10.84V29.816C64.0549 30.6053 63.6655 31 62.8869 31C62.0975 31 61.7029 30.6053 61.7029 29.816V13.192L62.4229 13.432L55.4789 23.784C55.1375 24.2853 54.6629 24.536 54.0549 24.536C53.6069 24.536 53.2122 24.2853 52.8709 23.784L45.9269 13.432L46.6149 13.64V29.816C46.6149 30.6053 46.2255 31 45.4469 31ZM71.6656 31C71.271 31 70.9723 30.904 70.7696 30.712C70.5776 30.5093 70.4816 30.2107 70.4816 29.816V10.856C70.4816 10.4507 70.5776 10.152 70.7696 9.96C70.9723 9.768 71.271 9.672 71.6656 9.672C72.0603 9.672 72.3536 9.768 72.5456 9.96C72.7376 10.152 72.8336 10.4507 72.8336 10.856V29.816C72.8336 30.2107 72.7376 30.5093 72.5456 30.712C72.3536 30.904 72.0603 31 71.6656 31ZM80.4469 31C79.6575 31 79.2629 30.6053 79.2629 29.816V10.84C79.2629 10.0507 79.6575 9.656 80.4469 9.656C80.8522 9.656 81.2469 9.89067 81.6309 10.36L94.7189 27.208H94.1429V10.84C94.1429 10.0507 94.5375 9.656 95.3269 9.656C96.1055 9.656 96.4949 10.0507 96.4949 10.84V29.816C96.4949 30.6053 96.1055 31 95.3269 31C94.9002 31 94.5055 30.7653 94.1429 30.296L81.0389 13.448H81.6149V29.816C81.6149 30.6053 81.2255 31 80.4469 31ZM101.703 30.888C100.956 30.5893 100.732 30.072 101.031 29.336L108.759 10.584C109.026 9.96533 109.463 9.656 110.071 9.656H110.151C110.759 9.688 111.175 9.99733 111.399 10.584L119.207 29.336C119.506 30.072 119.292 30.5893 118.567 30.888C117.831 31.176 117.319 30.9627 117.031 30.248L115.159 25.768H105.031L103.223 30.248C102.924 30.9733 102.418 31.1867 101.703 30.888ZM105.959 23.416H114.199L110.023 13.384L105.959 23.416ZM137.907 31C136.158 31 134.862 30.5787 134.019 29.736C133.177 28.8933 132.755 27.5973 132.755 25.848C132.755 24.0987 133.171 22.8027 134.003 21.96C134.846 21.1173 136.147 20.696 137.907 20.696H144.835C144.793 19.48 144.494 18.6427 143.939 18.184C143.385 17.7253 142.441 17.496 141.107 17.496H139.251C138.089 17.496 137.225 17.592 136.659 17.784C136.105 17.976 135.731 18.312 135.539 18.792C135.39 19.176 135.225 19.448 135.043 19.608C134.873 19.7573 134.606 19.832 134.243 19.832C133.849 19.832 133.539 19.7253 133.315 19.512C133.102 19.288 133.038 18.9947 133.123 18.632C133.379 17.4267 134.009 16.5467 135.011 15.992C136.014 15.4267 137.427 15.144 139.251 15.144H141.107C143.187 15.144 144.723 15.64 145.715 16.632C146.707 17.624 147.203 19.16 147.203 21.24V29.816C147.203 30.6053 146.814 31 146.035 31C145.246 31 144.851 30.6053 144.851 29.816V28.808C143.753 30.2693 142.035 31 139.699 31H137.907ZM137.907 28.648H139.699C140.563 28.648 141.358 28.5627 142.083 28.392C142.809 28.2213 143.417 27.9227 143.907 27.496C144.398 27.0693 144.713 26.472 144.851 25.704V23.048H137.907C136.809 23.048 136.067 23.2453 135.683 23.64C135.299 24.024 135.107 24.76 135.107 25.848C135.107 26.9467 135.299 27.688 135.683 28.072C136.067 28.456 136.809 28.648 137.907 28.648ZM166.349 15.144C167.139 15.144 167.533 15.5333 167.533 16.312V29.816C167.533 30.6053 167.139 31 166.349 31C165.571 31 165.181 30.6053 165.181 29.816V28.968C164.083 30.3227 162.36 31 160.013 31H159.117C157.037 31 155.501 30.504 154.509 29.512C153.517 28.5093 153.021 26.968 153.021 24.888V16.312C153.021 15.5333 153.411 15.144 154.189 15.144C154.979 15.144 155.373 15.5333 155.373 16.312V24.888C155.373 26.328 155.64 27.3147 156.173 27.848C156.717 28.3813 157.699 28.648 159.117 28.648H160.013C161.421 28.648 162.6 28.4613 163.549 28.088C164.499 27.704 165.043 27.1227 165.181 26.344V16.312C165.181 15.5333 165.571 15.144 166.349 15.144ZM179.406 31C177.326 31 175.785 30.504 174.782 29.512C173.79 28.5093 173.294 26.968 173.294 24.888V21.24C173.294 19.16 173.79 17.624 174.782 16.632C175.785 15.64 177.326 15.144 179.406 15.144H185.774V9.752C185.774 8.97333 186.169 8.584 186.958 8.584C187.737 8.584 188.126 8.97333 188.126 9.752V29.816C188.126 30.6053 187.737 31 186.958 31C186.169 31 185.774 30.6053 185.774 29.816V29.208C185.284 29.7947 184.622 30.2427 183.79 30.552C182.958 30.8507 181.902 31 180.622 31H179.406ZM179.406 28.648H180.622C182.116 28.648 183.348 28.44 184.318 28.024C185.289 27.608 185.774 26.9733 185.774 26.12V17.496H179.406C177.966 17.496 176.98 17.768 176.446 18.312C175.913 18.8453 175.646 19.8213 175.646 21.24V24.888C175.646 26.328 175.913 27.3147 176.446 27.848C176.99 28.3813 177.977 28.648 179.406 28.648ZM195.015 12.424C194.098 12.424 193.639 11.9547 193.639 11.016V10.152C193.639 9.23467 194.098 8.776 195.015 8.776H195.879C196.764 8.776 197.207 9.23467 197.207 10.152V11.016C197.207 11.9547 196.764 12.424 195.879 12.424H195.015ZM195.447 31C194.658 31 194.263 30.6053 194.263 29.816V16.312C194.263 15.5333 194.658 15.144 195.447 15.144C196.226 15.144 196.615 15.5333 196.615 16.312V29.816C196.615 30.6053 196.226 31 195.447 31ZM208.5 31C206.42 31 204.879 30.504 203.876 29.512C202.884 28.52 202.388 26.9893 202.388 24.92V21.24C202.388 19.1387 202.884 17.5973 203.876 16.616C204.879 15.624 206.42 15.1333 208.5 15.144H211.124C213.204 15.144 214.74 15.64 215.732 16.632C216.724 17.624 217.22 19.16 217.22 21.24V24.888C217.22 26.968 216.724 28.5093 215.732 29.512C214.74 30.504 213.204 31 211.124 31H208.5ZM204.74 24.92C204.74 26.3387 205.007 27.3147 205.54 27.848C206.073 28.3813 207.06 28.648 208.5 28.648H211.124C212.564 28.648 213.545 28.3813 214.068 27.848C214.601 27.3147 214.868 26.328 214.868 24.888V21.24C214.868 19.8 214.601 18.8187 214.068 18.296C213.545 17.7627 212.564 17.496 211.124 17.496H208.5C207.54 17.496 206.788 17.608 206.244 17.832C205.7 18.056 205.311 18.44 205.076 18.984C204.852 19.528 204.74 20.28 204.74 21.24V24.92ZM58.7078 50C58.3131 50 58.1158 49.8027 58.1158 49.408V39.92C58.1158 39.5253 58.3131 39.328 58.7078 39.328C58.9105 39.328 59.1078 39.4453 59.2998 39.68L65.8438 48.104H65.5558V39.92C65.5558 39.5253 65.7531 39.328 66.1478 39.328C66.5371 39.328 66.7318 39.5253 66.7318 39.92V49.408C66.7318 49.8027 66.5371 50 66.1478 50C65.9345 50 65.7371 49.8827 65.5558 49.648L59.0038 41.224H59.2918V49.408C59.2918 49.8027 59.0971 50 58.7078 50ZM72.6719 50C71.6319 50 70.8613 49.752 70.3599 49.256C69.8639 48.76 69.6159 47.9947 69.6159 46.96V45.12C69.6159 44.0693 69.8639 43.2987 70.3599 42.808C70.8613 42.312 71.6319 42.0667 72.6719 42.072H73.9839C75.0239 42.072 75.7919 42.32 76.2879 42.816C76.7839 43.312 77.0319 44.08 77.0319 45.12V46.944C77.0319 47.984 76.7839 48.7547 76.2879 49.256C75.7919 49.752 75.0239 50 73.9839 50H72.6719ZM70.7919 46.96C70.7919 47.6693 70.9253 48.1573 71.1919 48.424C71.4586 48.6907 71.9519 48.824 72.6719 48.824H73.9839C74.7039 48.824 75.1946 48.6907 75.4559 48.424C75.7226 48.1573 75.8559 47.664 75.8559 46.944V45.12C75.8559 44.4 75.7226 43.9093 75.4559 43.648C75.1946 43.3813 74.7039 43.248 73.9839 43.248H72.6719C72.1919 43.248 71.8159 43.304 71.5439 43.416C71.2719 43.528 71.0773 43.72 70.9599 43.992C70.8479 44.264 70.7919 44.64 70.7919 45.12V46.96ZM80.5047 50C80.11 50 79.9127 49.8027 79.9127 49.408V42.656C79.9127 42.2667 80.11 42.072 80.5047 42.072C80.894 42.072 81.0887 42.2667 81.0887 42.656V43.488C81.3927 43.024 81.7927 42.672 82.2887 42.432C82.79 42.192 83.3714 42.072 84.0327 42.072C84.4274 42.072 84.6247 42.2667 84.6247 42.656C84.6247 43.0507 84.4274 43.248 84.0327 43.248C83.0994 43.248 82.3847 43.4347 81.8887 43.808C81.3927 44.176 81.126 44.68 81.0887 45.32V49.408C81.0887 49.8027 80.894 50 80.5047 50ZM88.8907 50C87.8507 50 87.08 49.752 86.5787 49.256C86.0827 48.7547 85.8347 47.984 85.8347 46.944V45.12C85.8347 44.08 86.0827 43.312 86.5787 42.816C87.08 42.32 87.8507 42.072 88.8907 42.072H92.0747V39.376C92.0747 38.9867 92.272 38.792 92.6667 38.792C93.056 38.792 93.2507 38.9867 93.2507 39.376V49.408C93.2507 49.8027 93.056 50 92.6667 50C92.272 50 92.0747 49.8027 92.0747 49.408V49.104C91.8294 49.3973 91.4987 49.6213 91.0827 49.776C90.6667 49.9253 90.1387 50 89.4987 50H88.8907ZM88.8907 48.824H89.4987C90.2454 48.824 90.8614 48.72 91.3467 48.512C91.832 48.304 92.0747 47.9867 92.0747 47.56V43.248H88.8907C88.1707 43.248 87.6774 43.384 87.4107 43.656C87.144 43.9227 87.0107 44.4107 87.0107 45.12V46.944C87.0107 47.664 87.144 48.1573 87.4107 48.424C87.6827 48.6907 88.176 48.824 88.8907 48.824ZM96.6949 40.712C96.2363 40.712 96.0069 40.4773 96.0069 40.008V39.576C96.0069 39.1173 96.2363 38.888 96.6949 38.888H97.1269C97.5696 38.888 97.7909 39.1173 97.7909 39.576V40.008C97.7909 40.4773 97.5696 40.712 97.1269 40.712H96.6949ZM96.9109 50C96.5163 50 96.3189 49.8027 96.3189 49.408V42.656C96.3189 42.2667 96.5163 42.072 96.9109 42.072C97.3003 42.072 97.4949 42.2667 97.4949 42.656V49.408C97.4949 49.8027 97.3003 50 96.9109 50ZM103.438 50C102.398 50 101.627 49.752 101.126 49.256C100.63 48.7547 100.382 47.984 100.382 46.944V45.104C100.382 44.064 100.627 43.296 101.118 42.8C101.614 42.304 102.387 42.0613 103.438 42.072H104.75C105.539 42.072 106.155 42.2053 106.598 42.472C107.04 42.7387 107.318 43.1493 107.43 43.704C107.467 43.9013 107.43 44.0533 107.318 44.16C107.211 44.2667 107.056 44.32 106.854 44.32C106.672 44.32 106.539 44.2747 106.454 44.184C106.368 44.088 106.294 43.9547 106.23 43.784C106.155 43.5867 106.003 43.448 105.774 43.368C105.55 43.288 105.208 43.248 104.75 43.248H103.438C102.723 43.2373 102.23 43.3653 101.958 43.632C101.691 43.8933 101.558 44.384 101.558 45.104V46.944C101.558 47.664 101.691 48.1573 101.958 48.424C102.23 48.6907 102.723 48.824 103.438 48.824H104.75C105.208 48.824 105.55 48.784 105.774 48.704C106.003 48.624 106.155 48.4827 106.23 48.28C106.294 48.104 106.368 47.9707 106.454 47.88C106.539 47.7893 106.675 47.744 106.862 47.744C107.059 47.744 107.211 47.8 107.318 47.912C107.43 48.0187 107.467 48.168 107.43 48.36C107.318 48.9147 107.04 49.328 106.598 49.6C106.155 49.8667 105.539 50 104.75 50H103.438ZM116.674 49.992C116.002 49.992 115.477 49.8533 115.098 49.576C114.72 49.2933 114.482 48.8693 114.386 48.304C114.354 48.112 114.392 47.96 114.498 47.848C114.61 47.736 114.765 47.68 114.962 47.68C115.149 47.68 115.285 47.728 115.37 47.824C115.461 47.92 115.533 48.064 115.586 48.256C115.645 48.4747 115.757 48.624 115.922 48.704C116.088 48.7787 116.338 48.816 116.674 48.816H119.298C119.741 48.816 120.04 48.7413 120.194 48.592C120.354 48.4373 120.434 48.1333 120.434 47.68C120.434 47.2267 120.354 46.9227 120.194 46.768C120.04 46.6133 119.741 46.536 119.298 46.536H116.714C115.973 46.536 115.416 46.352 115.042 45.984C114.669 45.6107 114.482 45.0533 114.482 44.312C114.482 43.5547 114.664 42.992 115.026 42.624C115.394 42.2507 115.957 42.064 116.714 42.064H119.218C120.456 42.064 121.173 42.5947 121.37 43.656C121.402 43.8533 121.362 44.0053 121.25 44.112C121.144 44.2187 120.992 44.272 120.794 44.272C120.613 44.272 120.477 44.224 120.386 44.128C120.296 44.032 120.226 43.896 120.178 43.72C120.125 43.5333 120.024 43.408 119.874 43.344C119.73 43.2747 119.512 43.24 119.218 43.24H116.714C116.288 43.24 116.005 43.3093 115.866 43.448C115.728 43.5867 115.658 43.8747 115.658 44.312C115.658 44.7173 115.73 44.9947 115.874 45.144C116.024 45.288 116.304 45.36 116.714 45.36H119.298C120.077 45.36 120.656 45.552 121.034 45.936C121.418 46.32 121.61 46.9013 121.61 47.68C121.61 48.4587 121.418 49.04 121.034 49.424C120.656 49.8027 120.077 49.992 119.298 49.992H116.674ZM127.078 50C126.038 50 125.268 49.752 124.766 49.256C124.27 48.76 124.022 47.9947 124.022 46.96V45.12C124.022 44.0693 124.27 43.2987 124.766 42.808C125.268 42.312 126.038 42.0667 127.078 42.072H128.39C129.43 42.072 130.198 42.32 130.694 42.816C131.19 43.312 131.438 44.08 131.438 45.12V46.944C131.438 47.984 131.19 48.7547 130.694 49.256C130.198 49.752 129.43 50 128.39 50H127.078ZM125.198 46.96C125.198 47.6693 125.332 48.1573 125.598 48.424C125.865 48.6907 126.358 48.824 127.078 48.824H128.39C129.11 48.824 129.601 48.6907 129.862 48.424C130.129 48.1573 130.262 47.664 130.262 46.944V45.12C130.262 44.4 130.129 43.9093 129.862 43.648C129.601 43.3813 129.11 43.248 128.39 43.248H127.078C126.598 43.248 126.222 43.304 125.95 43.416C125.678 43.528 125.484 43.72 125.366 43.992C125.254 44.264 125.198 44.64 125.198 45.12V46.96ZM140.831 42.072C141.226 42.072 141.423 42.2667 141.423 42.656V49.408C141.423 49.8027 141.226 50 140.831 50C140.442 50 140.247 49.8027 140.247 49.408V48.984C139.698 49.6613 138.836 50 137.663 50H137.215C136.175 50 135.407 49.752 134.911 49.256C134.415 48.7547 134.167 47.984 134.167 46.944V42.656C134.167 42.2667 134.362 42.072 134.751 42.072C135.146 42.072 135.343 42.2667 135.343 42.656V46.944C135.343 47.664 135.476 48.1573 135.743 48.424C136.015 48.6907 136.506 48.824 137.215 48.824H137.663C138.367 48.824 138.956 48.7307 139.431 48.544C139.906 48.352 140.178 48.0613 140.247 47.672V42.656C140.247 42.2667 140.442 42.072 140.831 42.072ZM145.223 50C144.829 50 144.631 49.8027 144.631 49.408V42.656C144.631 42.2667 144.829 42.072 145.223 42.072C145.613 42.072 145.807 42.2667 145.807 42.656V43.088C146.351 42.4107 147.213 42.072 148.391 42.072H148.839C149.879 42.072 150.647 42.32 151.143 42.816C151.639 43.312 151.887 44.08 151.887 45.12V49.408C151.887 49.8027 151.693 50 151.303 50C150.909 50 150.711 49.8027 150.711 49.408V45.12C150.711 44.4 150.575 43.9093 150.303 43.648C150.037 43.3813 149.549 43.248 148.839 43.248H148.391C147.687 43.248 147.098 43.3413 146.623 43.528C146.149 43.7093 145.877 43.9973 145.807 44.392V49.408C145.807 49.8027 145.613 50 145.223 50ZM157.672 50C156.632 50 155.861 49.752 155.36 49.256C154.864 48.7547 154.616 47.984 154.616 46.944V45.12C154.616 44.08 154.864 43.312 155.36 42.816C155.861 42.32 156.632 42.072 157.672 42.072H160.856V39.376C160.856 38.9867 161.053 38.792 161.448 38.792C161.837 38.792 162.032 38.9867 162.032 39.376V49.408C162.032 49.8027 161.837 50 161.448 50C161.053 50 160.856 49.8027 160.856 49.408V49.104C160.611 49.3973 160.28 49.6213 159.864 49.776C159.448 49.9253 158.92 50 158.28 50H157.672ZM157.672 48.824H158.28C159.027 48.824 159.643 48.72 160.128 48.512C160.613 48.304 160.856 47.9867 160.856 47.56V43.248H157.672C156.952 43.248 156.459 43.384 156.192 43.656C155.925 43.9227 155.792 44.4107 155.792 45.12V46.944C155.792 47.664 155.925 48.1573 156.192 48.424C156.464 48.6907 156.957 48.824 157.672 48.824Z" fill="#FAFAFA"/>
</svg>
